<svg width="458" height="254" viewBox="0 0 458 254" fill="none" xmlns="http://www.w3.org/2000/svg">
<path d="M421.408 252.189V247.893L298.32 177.599L231.405 148.131L185.671 117.743C185.671 117.743 166.945 128.793 152.828 141.994C138.711 155.194 127.352 171.461 127.352 171.461L129.502 177.599C129.502 177.599 151.295 184.966 156.207 187.116C161.12 189.266 164.495 191.721 164.804 195.096" stroke="#00D1FF" stroke-width="0.7" stroke-miterlimit="10"/>
<path d="M203.959 152.699L231.705 167.93" stroke="#00D1FF" stroke-width="0.7" stroke-miterlimit="10"/>
<path d="M169.086 133.554L200.773 150.949" stroke="#00D1FF" stroke-width="0.7" stroke-miterlimit="10"/>
<path d="M199.746 161.116L166.595 180.914" stroke="#00D1FF" stroke-width="0.7" stroke-miterlimit="10"/>
<path d="M164.602 182.447L159.689 185.67" stroke="#00D1FF" stroke-width="0.7" stroke-miterlimit="10"/>
<path d="M155.853 166.641L203.89 182.143" stroke="#00D1FF" stroke-width="0.7" stroke-miterlimit="10"/>
<path d="M210.949 184.137L227.22 188.893" stroke="#00D1FF" stroke-width="0.7" stroke-miterlimit="10"/>
<path d="M316.264 198.577C328.484 201.137 337.061 202.974 338.18 203.324" stroke="#00D1FF" stroke-width="0.7" stroke-miterlimit="10"/>
<path d="M290.47 193.212C297.897 194.75 305.02 196.224 311.392 197.554" stroke="#00D1FF" stroke-width="0.7" stroke-miterlimit="10"/>
<path d="M281.883 191.44C283.808 191.836 285.723 192.232 287.62 192.623" stroke="#00D1FF" stroke-width="0.7" stroke-miterlimit="10"/>
<path d="M211.105 176.922C211.105 176.922 245.555 183.949 278.6 190.763" stroke="#00D1FF" stroke-width="0.7" stroke-miterlimit="10"/>
<path d="M208.545 176.77L198.057 174.827" stroke="#00D1FF" stroke-width="0.7" stroke-miterlimit="10"/>
<path d="M189.769 167L196.371 169.146L185.012 175.9" stroke="#00D1FF" stroke-width="0.7" stroke-miterlimit="10"/>
<path d="M265.293 199.967L268.452 200.455L344.58 217.647" stroke="#00D1FF" stroke-width="0.7" stroke-miterlimit="10"/>
<path d="M231.617 194.727L260.275 199.184" stroke="#00D1FF" stroke-width="0.7" stroke-miterlimit="10"/>
<path d="M225.683 220.309C225.683 220.309 226.295 211.51 227.524 205.165C228.754 198.821 237.962 153.187 237.962 153.187" stroke="#00D1FF" stroke-width="0.7" stroke-miterlimit="10"/>
<path d="M268.042 203.936L275.207 167.713" stroke="#00D1FF" stroke-width="0.7" stroke-miterlimit="10"/>
<path d="M306.309 211.303L311.222 187.36" stroke="#00D1FF" stroke-width="0.7" stroke-miterlimit="10"/>
<path d="M356.243 220.714L373.431 224.808" stroke="#00D1FF" stroke-width="0.7" stroke-miterlimit="10"/>
<path d="M362.588 214.784L344.171 210.69" stroke="#00D1FF" stroke-width="0.7" stroke-miterlimit="10"/>
<path d="M339.46 209.461L328.617 207.209" stroke="#00D1FF" stroke-width="0.7" stroke-miterlimit="10"/>
<path d="M348.056 207.822L299.559 197.798" stroke="#00D1FF" stroke-width="0.7" stroke-miterlimit="10"/>
<path d="M295.899 197.062L290.553 195.957" stroke="#00D1FF" stroke-width="0.7" stroke-miterlimit="10"/>
<path d="M348.056 213.554V219.489H349.898" stroke="#00D1FF" stroke-width="0.7" stroke-miterlimit="10"/>
<path d="M369.858 208.384L376.912 211.303L372.612 216.216" stroke="#00D1FF" stroke-width="0.7" stroke-miterlimit="10"/>
<path d="M353.172 201.482L365.535 206.597" stroke="#00D1FF" stroke-width="0.7" stroke-miterlimit="10"/>
<path d="M340.947 219.95L241.696 201.735" stroke="#00D1FF" stroke-width="0.7" stroke-miterlimit="10"/>
<path d="M241.236 204.138L340.487 222.353L340.947 217.491L241.696 199.281L241.236 204.138Z" stroke="#00D1FF" stroke-width="0.7" stroke-miterlimit="10"/>
<path d="M233.256 184.699V189.51L243.077 190.123V185.928L233.256 184.699Z" stroke="#00D1FF" stroke-width="0.7" stroke-miterlimit="10"/>
<path d="M142.5 165.158C145.875 161.166 159.794 147.353 162.041 145.512C166.848 146.534 172.479 149.094 172.479 149.094L161.429 161.783C157.501 160.218 155.319 159.385 149.867 157.589" stroke="#00D1FF" stroke-width="0.7" stroke-miterlimit="10"/>
<path d="M151.811 165.36L144.342 163.215" stroke="#00D1FF" stroke-width="0.7" stroke-miterlimit="10"/>
<path d="M237.502 206.238C237.502 206.238 182.862 196.26 174.731 193.806" stroke="#00D1FF" stroke-width="0.7" stroke-miterlimit="10"/>
<path d="M171.66 192.885L168.589 191.964" stroke="#00D1FF" stroke-width="0.7" stroke-miterlimit="10"/>
<path d="M240.417 206.546L242.875 206.698" stroke="#00D1FF" stroke-width="0.7" stroke-miterlimit="10"/>
<path d="M179.027 198.259C189.925 201.173 241.954 210.539 241.954 210.539" stroke="#00D1FF" stroke-width="0.7" stroke-miterlimit="10"/>
<path d="M201.74 206.086C209.719 207.928 241.029 213.301 241.029 213.301" stroke="#00D1FF" stroke-width="0.7" stroke-miterlimit="10"/>
<path d="M243.796 213.914L247.171 214.526" stroke="#00D1FF" stroke-width="0.7" stroke-miterlimit="10"/>
<path d="M211.87 211.455C211.87 211.455 352.15 235.858 400.496 244.606L400.956 242.916C400.956 242.916 383.308 234.32 380.236 233.708C377.165 233.095 266.049 211.607 261.293 210.994C256.536 210.382 246.407 210.842 247.171 211.763C247.935 212.684 250.703 216.059 250.703 216.059L391.135 240.923" stroke="#00D1FF" stroke-width="0.7" stroke-miterlimit="10"/>
<path d="M289.991 165.72C289.991 162.189 285.848 161.268 283.393 159.886C280.939 158.505 242.723 139.015 242.723 139.015L228.141 133.95C228.141 133.95 227.529 133.181 218.933 129.346C210.336 125.51 208.955 126.123 208.955 126.123L189.156 117.683C189.156 117.683 194.58 98.856 197.035 92.4099C199.489 85.9638 204.913 81.7693 207.882 81.668" stroke="#00D1FF" stroke-width="2.5" stroke-miterlimit="10"/>
<path d="M295.365 161.268L284.006 171.245" stroke="#00D1FF" stroke-width="0.7" stroke-miterlimit="10"/>
<path d="M297.358 158.505L308.257 164.799L319.151 155.438" stroke="#00D1FF" stroke-width="0.7" stroke-miterlimit="10"/>
<path d="M319.307 140.856L310.711 148.071L310.863 150.217L317.157 153.44" stroke="#00D1FF" stroke-width="0.7" stroke-miterlimit="10"/>
<path d="M301.811 150.525L304.877 154.517L355.221 184.597" stroke="#00D1FF" stroke-width="0.7" stroke-miterlimit="10"/>
<path d="M421.403 247.893L437.482 230.54L379.776 199.64V198.208L344.262 179.611L336.394 175.49L321.043 171.397L330.661 183.064L353.582 195.547L361.156 188.59" stroke="#00D1FF" stroke-width="0.7" stroke-miterlimit="10"/>
<path d="M453.243 212.123L440.143 227.059L383.869 196.569L381.415 196.367L340.487 172.829L333.733 161.167L348.876 166.489L371.387 178.971L364.223 186.131" stroke="#00D1FF" stroke-width="0.7" stroke-miterlimit="10"/>
<path d="M362.381 191.453L347.444 205.367" stroke="#00D1FF" stroke-width="0.7" stroke-miterlimit="10"/>
<path d="M366.884 187.973L378.344 176.922" stroke="#00D1FF" stroke-width="0.7" stroke-miterlimit="10"/>
<path d="M379.573 178.561L394.307 190.431" stroke="#00D1FF" stroke-width="0.7" stroke-miterlimit="10"/>
<path d="M402.899 184.289L396.352 190.431" stroke="#00D1FF" stroke-width="0.7" stroke-miterlimit="10"/>
<path d="M418.862 191.863L404.128 207.21" stroke="#00D1FF" stroke-width="0.7" stroke-miterlimit="10"/>
<path d="M400.647 211.1L385.711 227.059" stroke="#00D1FF" stroke-width="0.7" stroke-miterlimit="10"/>
<path d="M292.97 134.396L311.917 144.471" stroke="#00D1FF" stroke-width="0.7" stroke-miterlimit="10"/>
<path d="M382.248 173.146L380.54 174.684" stroke="#00D1FF" stroke-width="0.7" stroke-miterlimit="10"/>
<path d="M328.645 145.493L324.036 149.25L335.302 155.563L340.593 151.64" stroke="#00D1FF" stroke-width="0.7" stroke-miterlimit="10"/>
<path d="M274.875 117.669L283.582 118.521L340.082 146.004L429.36 196.702" stroke="#00D1FF" stroke-width="0.7" stroke-miterlimit="10"/>
<path d="M229.808 88.8179L242.272 85.0653L255.929 84.0386L395.905 172.295L432.436 197.899" stroke="#00D1FF" stroke-width="2.5" stroke-miterlimit="10"/>
<path d="M272.265 98.791C295.834 113.087 318.856 126.9 342.301 141.054" stroke="#00D1FF" stroke-width="0.7" stroke-miterlimit="10"/>
<path d="M253.194 87.2852C258.074 90.0662 262.218 93.2892 267.228 95.7525" stroke="#00D1FF" stroke-width="0.7" stroke-miterlimit="10"/>
<path d="M245.43 91.6911L252.084 89.748L258.53 93.5328L252.493 95.9915L245.43 91.6911Z" stroke="#00D1FF" stroke-width="0.7" stroke-miterlimit="10"/>
<path d="M185.662 117.743L119.272 89.5414C119.272 89.5414 123.775 73.5782 126.436 67.4406C129.097 61.303 133.803 60.2763 133.803 60.2763L138.099 59.9678" stroke="#00D1FF" stroke-width="0.7" stroke-miterlimit="10"/>
<path d="M101.264 31.6323L138.099 44.9343" stroke="#00D1FF" stroke-width="0.7" stroke-miterlimit="10"/>
<path d="M142.602 53.3232V61.5098" stroke="#00D1FF" stroke-width="0.7" stroke-miterlimit="10"/>
<path d="M197.753 74.7061C197.753 74.7061 197.14 75.1297 197.14 77.3167" stroke="#00D1FF" stroke-width="0.7" stroke-miterlimit="10"/>
<path d="M196.371 79.3101L196.56 82.1141" stroke="#00D1FF" stroke-width="0.7" stroke-miterlimit="10"/>
<path d="M242.566 95.172C228.652 97.2163 227.114 130.473 227.114 130.473L192.734 116.559C192.734 116.559 194.833 108.782 198.36 96.8111C200.552 89.3843 206.851 82.5883 211.865 82.8968" stroke="#00D1FF" stroke-width="0.7" stroke-miterlimit="10"/>
<path d="M294.236 136.404C294.236 136.404 293.316 133.641 290.143 136.813C286.971 139.986 298.739 151.547 281.547 149.503C264.354 147.459 230.181 131.495 230.181 131.495C230.181 131.495 233.864 101.825 241.434 98.3442C249.003 94.8634 248.902 104.381 248.902 104.381L248.7 107.143" stroke="#00D1FF" stroke-width="0.7" stroke-miterlimit="10"/>
<path d="M208.955 126.123C208.955 126.123 209.807 127.854 213.711 129.806C217.616 131.758 223.38 134.102 224.453 134.41C225.526 134.719 228.597 134.41 228.597 134.41" stroke="#00D1FF" stroke-width="0.7" stroke-miterlimit="10"/>
<path d="M244.56 139.784C277.56 155.13 303.956 156.207 305.798 155.13C307.64 154.052 296.741 139.784 292.754 135.023C288.767 130.262 271.114 113.995 259.755 105.863C248.396 97.7321 240.108 92.6627 227.064 87.7545C214.02 82.8463 199.438 79.6187 199.438 79.6187" stroke="#00D1FF" stroke-width="2.5" stroke-miterlimit="10"/>
<path d="M242.364 136.51L249.731 129.958L278.071 143.877L288.813 135.382" stroke="#00D1FF" stroke-width="0.7" stroke-miterlimit="10"/>
<path d="M279.199 143.058L279.401 148.684" stroke="#00D1FF" stroke-width="0.7" stroke-miterlimit="10"/>
<path d="M290.143 136.813C288.527 138.149 285.313 142.44 282.574 149.397" stroke="#00D1FF" stroke-width="0.7" stroke-miterlimit="10"/>
<path d="M249.625 129.654L257.098 128.116L282.063 140.295" stroke="#00D1FF" stroke-width="0.7" stroke-miterlimit="10"/>
<path d="M134.825 68.4165L190.897 91.7973" stroke="#00D1FF" stroke-width="0.7" stroke-miterlimit="10"/>
<path d="M127.767 58.439C127.767 58.439 124.903 59.0513 123.365 60.999C121.827 62.9466 116.817 72.4592 116.817 72.4592" stroke="#00D1FF" stroke-width="0.7" stroke-miterlimit="10"/>
<path d="M124.387 64.0649H121.422" stroke="#00D1FF" stroke-width="0.7" stroke-miterlimit="10"/>
<path d="M231.516 87.9067L227.833 82.9939C227.833 82.9939 216.479 78.698 205.732 74.7061C194.985 70.7141 194.373 68.5639 192.531 63.6556C190.69 58.7474 184.856 39.4092 182.402 32.6546C179.948 25.9001 177.185 22.2166 173.193 20.3749C169.201 18.5331 126.841 4.41624 118.862 2.26601C110.883 0.115788 103.207 4.10314 102.286 12.0871C101.365 20.071 100.445 43.194 100.445 43.194C100.445 43.194 98.5016 43.9122 95.4305 46.7761C93.2194 48.8381 92.0178 50.7425 91.5183 51.6474" stroke="#00D1FF" stroke-width="2.5" stroke-miterlimit="10"/>
<path d="M152.331 65.9576L194.23 82.0728L197.914 82.5332C197.914 82.5332 199.907 80.6915 199.907 77.9289C199.907 75.1663 196.836 73.9876 196.836 73.9876L152.837 66.0082L106.996 46.9785C103.874 47.4659 100.845 49.2597 97.907 53.9493" stroke="#00D1FF" stroke-width="0.7" stroke-miterlimit="10"/>
<path d="M111.09 48.8203C108.027 49.2984 105.053 51.0338 102.168 55.5269" stroke="#00D1FF" stroke-width="0.7" stroke-miterlimit="10"/>
<path d="M104.745 56.4958C108.142 52.1332 110.974 50.2284 115.418 50.4436" stroke="#00D1FF" stroke-width="0.7" stroke-miterlimit="10"/>
<path d="M264.589 89.5547C264.589 89.5547 326.596 108.815 327.936 109.201C329.276 109.588 328.778 112.194 326.822 111.697C324.865 111.2 278.936 98.6529 278.936 98.6529" stroke="#00D1FF" stroke-width="0.7" stroke-miterlimit="10"/>
<path d="M253.617 84.223L244.1 80.3369C244.1 80.3369 242.055 80.5395 241.438 82.2799C240.821 84.0204 241.13 85.2451 241.13 85.2451" stroke="#00D1FF" stroke-width="0.7" stroke-miterlimit="10"/>
<path d="M141.193 44.6997L144.268 46.0395C144.434 46.1132 144.544 46.279 144.544 46.4631V53.0427C144.544 53.3697 144.208 53.5953 143.904 53.4663L140.787 52.1633C140.617 52.0896 140.502 51.9239 140.506 51.7351L140.553 45.1187C140.553 44.7872 140.893 44.5662 141.197 44.6997H141.193Z" stroke="#00D1FF" stroke-width="0.7" stroke-miterlimit="10"/>
<path d="M196.873 207.781L120.754 177.618C119.506 177.084 117.72 178.778 118.166 181.545L119.911 182.245" stroke="#00D1FF" stroke-width="0.7" stroke-miterlimit="10"/>
<path d="M210.134 227.169L179.602 215.069" stroke="#00D1FF" stroke-width="0.7" stroke-miterlimit="10"/>
<path d="M154.776 210.842L120.17 197.13" stroke="#00D1FF" stroke-width="0.7" stroke-miterlimit="10"/>
<path d="M159.495 210.161L173.778 215.819C174.671 216.174 175.638 216.312 176.591 216.229L180.15 215.911" stroke="#00D1FF" stroke-width="0.7" stroke-miterlimit="10"/>
<path d="M169.45 207.109L129.429 191.247" stroke="#00D1FF" stroke-width="0.7" stroke-miterlimit="10"/>
<path d="M154.983 206.445L122.573 193.604" stroke="#00D1FF" stroke-width="0.7" stroke-miterlimit="10"/>
<path d="M154.265 208.287L123.148 195.957" stroke="#00D1FF" stroke-width="0.7" stroke-miterlimit="10"/>
<path d="M171.559 205.34L131.105 189.312" stroke="#00D1FF" stroke-width="0.7" stroke-miterlimit="10"/>
<path d="M195.349 211.441L121.155 182.038" stroke="#00D1FF" stroke-width="0.7" stroke-miterlimit="10"/>
<path d="M212.385 222.04L181.854 209.94" stroke="#00D1FF" stroke-width="0.7" stroke-miterlimit="10"/>
<path d="M204.213 214.144L195.745 210.787" stroke="#00D1FF" stroke-width="0.7" stroke-miterlimit="10"/>
<path d="M206.054 210.921L197.587 207.564" stroke="#00D1FF" stroke-width="0.7" stroke-miterlimit="10"/>
<path d="M225.738 226.175L213.504 221.326" stroke="#00D1FF" stroke-width="0.7" stroke-miterlimit="10"/>
<path d="M221.962 233.763L210.585 229.255" stroke="#00D1FF" stroke-width="0.7" stroke-miterlimit="10"/>
<path d="M221.921 230.72L210.083 226.028" stroke="#00D1FF" stroke-width="0.7" stroke-miterlimit="10"/>
<path d="M130.552 138.19L146.948 144.388" stroke="#00D1FF" stroke-width="0.7" stroke-miterlimit="10"/>
<path d="M106.149 128.968L120.469 134.378" stroke="#00D1FF" stroke-width="0.7" stroke-miterlimit="10"/>
<path d="M97.2949 125.625L99.8826 126.601" stroke="#00D1FF" stroke-width="0.7" stroke-miterlimit="10"/>
<path d="M78.3943 118.479L89.6657 122.739" stroke="#00D1FF" stroke-width="0.7" stroke-miterlimit="10"/>
<path d="M66.5291 113.995L73.302 116.555" stroke="#00D1FF" stroke-width="0.7" stroke-miterlimit="10"/>
<path d="M53.9409 109.238L58.7985 111.075" stroke="#00D1FF" stroke-width="0.7" stroke-miterlimit="10"/>
<path d="M55.377 106.172L62.3848 108.819" stroke="#00D1FF" stroke-width="0.7" stroke-miterlimit="10"/>
<path d="M58.0339 104.533L65.0463 107.181" stroke="#00D1FF" stroke-width="0.7" stroke-miterlimit="10"/>
<path d="M67.6523 108.216L74.6601 110.864" stroke="#00D1FF" stroke-width="0.7" stroke-miterlimit="10"/>
<path d="M84.3296 114.663L95.5688 118.908" stroke="#00D1FF" stroke-width="0.7" stroke-miterlimit="10"/>
<path d="M105.408 122.338L126.744 130.4" stroke="#00D1FF" stroke-width="0.7" stroke-miterlimit="10"/>
<path d="M134.203 133.13L152.423 140.018" stroke="#00D1FF" stroke-width="0.7" stroke-miterlimit="10"/>
<path d="M33.7366 98.3447L41.9691 101.457" stroke="#00D1FF" stroke-width="0.7" stroke-miterlimit="10"/>
<path d="M97.8889 44.626L105.22 47.3997" stroke="#00D1FF" stroke-width="0.7" stroke-miterlimit="10"/>
<path d="M95.8403 46.3662L99.9658 47.9225" stroke="#00D1FF" stroke-width="0.7" stroke-miterlimit="10"/>
<path d="M93.7959 48.208L97.9168 49.7643" stroke="#00D1FF" stroke-width="0.7" stroke-miterlimit="10"/>
<path d="M112.01 54.4468L117.637 56.574" stroke="#00D1FF" stroke-width="0.7" stroke-miterlimit="10"/>
<path d="M111.601 58.1304L117.227 60.2576" stroke="#00D1FF" stroke-width="0.7" stroke-miterlimit="10"/>
<path d="M112.01 50.9707L117.637 53.0979" stroke="#00D1FF" stroke-width="0.7" stroke-miterlimit="10"/>
<path d="M17.1611 92.1289L20.1401 93.2524" stroke="#00D1FF" stroke-width="0.7" stroke-miterlimit="10"/>
<path d="M20.0757 89.9785L23.0547 91.1066" stroke="#00D1FF" stroke-width="0.7" stroke-miterlimit="10"/>
<path d="M12.2483 98.4185L15.2273 99.5465" stroke="#00D1FF" stroke-width="0.7" stroke-miterlimit="10"/>
<path d="M16.01 98.8789L18.989 100.007" stroke="#00D1FF" stroke-width="0.7" stroke-miterlimit="10"/>
<path d="M2.11865 123.13L5.09766 124.258" stroke="#00D1FF" stroke-width="0.7" stroke-miterlimit="10"/>
<path d="M7.18335 124.589L10.1624 125.713" stroke="#00D1FF" stroke-width="0.7" stroke-miterlimit="10"/>
<path d="M11.4792 125.662L14.4629 126.79" stroke="#00D1FF" stroke-width="0.7" stroke-miterlimit="10"/>
<path d="M34.2478 102.792L42.485 105.905" stroke="#00D1FF" stroke-width="0.7" stroke-miterlimit="10"/>
<path d="M33.8381 106.273L42.0753 109.385" stroke="#00D1FF" stroke-width="0.7" stroke-miterlimit="10"/>
<path d="M33.3779 109.906L40.3443 112.54" stroke="#00D1FF" stroke-width="0.7" stroke-miterlimit="10"/>
<path d="M32.761 113.488L38.5026 115.657" stroke="#00D1FF" stroke-width="0.7" stroke-miterlimit="10"/>
<path d="M32.457 117.476L36.9877 119.188" stroke="#00D1FF" stroke-width="0.7" stroke-miterlimit="10"/>
<path d="M30.9741 120.957L35.8041 122.784" stroke="#00D1FF" stroke-width="0.7" stroke-miterlimit="10"/>
<path d="M29.7446 123.972L34.6252 125.819" stroke="#00D1FF" stroke-width="0.7" stroke-miterlimit="10"/>
<path d="M28.313 126.892L34.2848 129.148" stroke="#00D1FF" stroke-width="0.7" stroke-miterlimit="10"/>
<path d="M26.9316 129.295L33.2948 131.698" stroke="#00D1FF" stroke-width="0.7" stroke-miterlimit="10"/>
<path d="M24.5789 131.546L32.816 134.659" stroke="#00D1FF" stroke-width="0.7" stroke-miterlimit="10"/>
<path d="M22.2627 134.056L29.1324 136.653" stroke="#00D1FF" stroke-width="0.7" stroke-miterlimit="10"/>
<path d="M19.3481 136.657L25.2923 138.904" stroke="#00D1FF" stroke-width="0.7" stroke-miterlimit="10"/>
<path d="M129.549 162.548L131.45 163.266" stroke="#00D1FF" stroke-width="0.7" stroke-miterlimit="10"/>
<path d="M124.456 160.627L127.734 161.861" stroke="#00D1FF" stroke-width="0.7" stroke-miterlimit="10"/>
<path d="M91.0146 148.002L114.055 156.7" stroke="#00D1FF" stroke-width="0.7" stroke-miterlimit="10"/>
<path d="M67.6523 139.189L83.4682 145.157" stroke="#00D1FF" stroke-width="0.7" stroke-miterlimit="10"/>
<path d="M51.3347 133.029L60.8289 136.611" stroke="#00D1FF" stroke-width="0.7" stroke-miterlimit="10"/>
<path d="M50.9249 145.737L40.8274 141.925" stroke="#00D1FF" stroke-width="0.7" stroke-miterlimit="10"/>
<path d="M42.126 138.554L47.9919 140.769" stroke="#00D1FF" stroke-width="0.7" stroke-miterlimit="10"/>
<path d="M41.8176 145.613L47.7526 147.855" stroke="#00D1FF" stroke-width="0.7" stroke-miterlimit="10"/>
<path d="M54.0974 148.992L60.9533 151.58" stroke="#00D1FF" stroke-width="0.7" stroke-miterlimit="10"/>
<path d="M15.0895 140.99C15.0526 141.059 11.3047 148.108 11.1205 155.3C11.0469 158.228 11.5073 173.174 28.0461 180.104C38.2815 184.39 59.6963 192.337 66.7363 194.948C67.846 195.362 68.6563 195.662 69.0799 195.818" stroke="#00D1FF" stroke-width="0.7" stroke-miterlimit="10"/>
<path d="M74.9316 199.64C74.7013 197.72 75.0006 195.155 77.8369 194.879C79.5359 194.713 81.0968 194.165 82.142 192.996C85.5215 189.211 91.0283 181.941 92.7918 179.597C93.1233 179.155 93.7081 178.994 94.2237 179.201L101.872 182.3" stroke="#00D1FF" stroke-width="0.7" stroke-miterlimit="10"/>
<path d="M12.0455 140.497C12.0455 140.497 8.56463 147.252 8.36204 155.231C8.15945 163.21 11.8429 176.31 26.982 182.654C38.8013 187.604 64.8388 197.186 68.1125 198.41C71.3862 199.635 80.8021 202.094 85.9175 196.366C91.0329 190.638 93.6942 186.748 95.536 184.294C97.3777 181.839 99.6292 181.43 102.7 182.452C105.771 183.474 110.067 185.316 110.067 185.316" stroke="#00D1FF" stroke-width="2.5" stroke-miterlimit="10"/>
<path d="M91.1712 185.615C89.6609 187.655 87.6673 190.256 84.8402 193.512C84.8402 193.512 83.6799 194.732 84.4857 195.653C85.2914 196.574 86.2123 195.998 86.2123 195.998" stroke="#00D1FF" stroke-width="0.7" stroke-miterlimit="10"/>
<path d="M64.4292 162.598L62.7947 193.088" stroke="#00D1FF" stroke-width="0.7" stroke-miterlimit="10"/>
<path d="M119.331 177.806L115.993 175.619C115.993 175.619 114.778 175.817 114.198 177.512C113.87 178.468 113.906 179.261 114 179.771" stroke="#00D1FF" stroke-width="0.7" stroke-miterlimit="10"/>
<path d="M114.037 178.989L110.077 178.69C110.077 178.69 109.552 177.493 110.178 175.817C110.805 174.141 112.029 173.975 112.029 173.975L115.188 176.195" stroke="#00D1FF" stroke-width="0.7" stroke-miterlimit="10"/>
<path d="M109.892 178.036C109.892 178.036 104.095 175.965 103.658 175.762C102.677 175.311 102.36 173.814 103.119 172.599C103.879 171.383 105.546 171.94 105.546 171.94L111.416 174.15" stroke="#00D1FF" stroke-width="0.7" stroke-miterlimit="10"/>
<path d="M27.0144 142.813L36.4533 145.366" stroke="#00D1FF" stroke-width="0.7" stroke-miterlimit="10"/>
<path d="M106.587 59.5346C104.685 58.8624 100.233 57.2463 94.5971 55.2019C79.8034 49.8379 52.2694 39.8465 49.4377 39.1973" stroke="#00D1FF" stroke-width="0.7" stroke-miterlimit="10"/>
<path d="M82.4875 112.001C82.4875 112.001 80.3372 104.943 87.2437 107.397C94.1503 109.851 153.546 131.339 156.309 132.412C159.071 133.485 162.603 134.102 160.913 131.8C159.223 129.498 157.382 127.504 157.382 127.504C157.382 127.504 143.721 122.9 138.352 120.906C132.983 118.912 121.928 115.072 119.474 98.4966C117.02 81.9209 117.632 80.0792 117.172 74.554C116.712 69.0288 114.718 59.9721 107.351 57.366C99.9839 54.76 53.9406 37.8758 49.9486 36.955C45.9567 36.0341 34.9062 38.6448 32.4521 48.1573C29.998 57.6699 25.2371 79.0064 24.7767 81.769C24.7767 81.769 23.4967 85.5538 24.3163 88.5236" stroke="#00D1FF" stroke-width="2.5" stroke-miterlimit="10"/>
<path d="M33.2856 95.6646C34.6117 100.306 34.6439 106.476 33.0692 113.253C30.256 125.349 23.216 135.584 16.1299 138.743" stroke="#00D1FF" stroke-width="0.7" stroke-miterlimit="10"/>
<path d="M8.51896 139.07C2.5149 136.381 0.000935267 126.012 2.89246 113.576C6.27665 99.0352 15.7708 87.1744 24.1046 87.0869" stroke="#00D1FF" stroke-width="2.5" stroke-miterlimit="10"/>
<path d="M40.6435 149.466C35.0722 146.971 32.7378 137.352 35.4222 125.809C38.5623 112.314 47.3704 101.31 55.1057 101.231" stroke="#00D1FF" stroke-width="0.7" stroke-miterlimit="10"/>
<path d="M61.2434 103.893C53.5127 103.975 44.7 114.98 41.5599 128.471C38.8755 140.009 41.2099 149.632 46.7812 152.128L53.8396 154.978" stroke="#00D1FF" stroke-width="0.7" stroke-miterlimit="10"/>
<path d="M58.6276 102.249C50.7587 102.332 41.7895 113.53 38.5987 127.264C35.8683 139.01 38.2442 148.799 43.9121 151.336L48.521 153.03" stroke="#00D1FF" stroke-width="0.7" stroke-miterlimit="10"/>
<path d="M56.9106 156.115C51.3393 153.619 49.0049 144.001 51.6893 132.458C54.8294 118.963 61.5656 110.721 69.7521 107.139" stroke="#00D1FF" stroke-width="0.7" stroke-miterlimit="10"/>
<path d="M68.1633 160.305C62.942 157.796 60.7642 148.081 63.3012 136.427C66.2663 122.794 74.149 113.493 80.2912 110.832" stroke="#00D1FF" stroke-width="0.7" stroke-miterlimit="10"/>
<path d="M72.4592 161.838C67.2379 159.329 65.0601 149.614 67.5971 137.96C70.5622 124.327 78.4449 115.026 84.5871 112.365" stroke="#00D1FF" stroke-width="0.7" stroke-miterlimit="10"/>
<path d="M101.061 118.401C94.9192 121.063 87.0365 130.363 84.0713 143.997C81.6137 155.291 83.343 164.082 84.5711 166.295" stroke="#00D1FF" stroke-width="0.7" stroke-miterlimit="10"/>
<path d="M103.004 173.239C101.775 171.397 99.8505 162.405 102.387 150.746C105.353 137.113 113.235 127.812 119.378 125.151" stroke="#00D1FF" stroke-width="0.7" stroke-miterlimit="10"/>
<path d="M118.659 177.231C117.642 175.394 115.786 165.978 117.941 154.311C120.464 140.668 127.039 132.541 132.164 129.857" stroke="#00D1FF" stroke-width="0.7" stroke-miterlimit="10"/>
<path d="M123.365 178.764C122.347 176.927 120.492 167.511 122.647 155.844C125.17 142.201 131.745 134.074 136.869 131.39" stroke="#00D1FF" stroke-width="0.7" stroke-miterlimit="10"/>
<path d="M8.38989 139.023L20.398 144.153" stroke="#00D1FF" stroke-width="0.7" stroke-miterlimit="10"/>
<path d="M13.2887 141.082C7.61154 138.089 5.28635 127.928 8.10881 115.804C10.899 103.796 17.8654 93.616 24.8962 90.3838" stroke="#00D1FF" stroke-width="0.7" stroke-miterlimit="10"/>
<path d="M28.3543 93.1875C21.7424 97.0551 15.4299 106.701 12.7962 117.95C9.37978 132.536 13.4408 144.291 21.8667 144.204C24.3116 144.181 26.8578 143.158 29.3212 141.367C31.0708 140.091 32.7771 138.429 34.3814 136.458" stroke="#00D1FF" stroke-width="0.7" stroke-miterlimit="10"/>
<path d="M42.2043 97.29C43.5304 100.145 44.2257 103.883 44.1658 108.165" stroke="#00D1FF" stroke-width="0.7" stroke-miterlimit="10"/>
<path d="M30.104 94.9741C23.902 99.1457 18.1143 108.377 15.628 119.064C12.8469 131.026 15.0754 141.073 20.596 144.194" stroke="#00D1FF" stroke-width="0.7" stroke-miterlimit="10"/>
<path d="M156.106 138.656L59.8064 103.327C59.8064 103.327 59.1066 101.922 57.8772 101.513C56.6479 101.103 54.5851 101.278 54.5851 101.278L30.9649 92.6123L30.5551 88.5191L26.052 86.9858L23.6992 89.0302L26.1533 92.511L30.6564 94.6613" stroke="#00D1FF" stroke-width="0.7" stroke-miterlimit="10"/>
<path d="M70.894 96.0195L69.5449 106.633" stroke="#00D1FF" stroke-width="0.7" stroke-miterlimit="10"/>
<path d="M73.4584 75.8384L71.6812 89.8125" stroke="#00D1FF" stroke-width="0.7" stroke-miterlimit="10"/>
<path d="M79.4715 47.4897L79.0617 47.6693C77.7311 48.2541 76.801 49.4972 76.6215 50.9384L74.2134 69.8945" stroke="#00D1FF" stroke-width="0.7" stroke-miterlimit="10"/>
<path d="M144.241 10.2451L143.256 11.4376C142.823 12.4046 142.602 13.4543 142.602 14.5133V44.9296" stroke="#00D1FF" stroke-width="0.7" stroke-miterlimit="10"/>
<path d="M72.2568 69.6639L71.7366 74.7287C71.7135 74.9497 71.8563 75.1615 72.0727 75.2213L74.8629 75.9949C75.1346 76.0685 75.4108 75.8844 75.443 75.6035L76.0508 70.5019C76.0784 70.2717 75.9311 70.0599 75.7101 70L72.8324 69.2633C72.5607 69.1943 72.2891 69.383 72.2615 69.6639H72.2568Z" stroke="#00D1FF" stroke-width="0.7" stroke-miterlimit="10"/>
<path d="M69.6965 89.9232L69.1763 94.988C69.1532 95.209 69.296 95.4208 69.5124 95.4806L72.3026 96.2541C72.5743 96.3278 72.8505 96.1436 72.8827 95.8628L73.4905 90.7612C73.5181 90.531 73.3708 90.3192 73.1498 90.2593L70.2721 89.5226C70.0004 89.4535 69.7288 89.6423 69.7012 89.9232H69.6965Z" stroke="#00D1FF" stroke-width="0.7" stroke-miterlimit="10"/>
<path d="M212.279 85.6553C212.279 85.6553 205.732 86.2677 201.74 98.2389" stroke="#00D1FF" stroke-width="0.7" stroke-miterlimit="10"/>
<path d="M200.617 101.411L198.057 115.942" stroke="#00D1FF" stroke-width="0.7" stroke-miterlimit="10"/>
<path d="M256.891 127.605L256.992 123.102L259.856 121.362C259.856 121.362 274.079 128.01 276.229 129.24C278.379 130.469 280.934 132.822 280.934 132.822" stroke="#00D1FF" stroke-width="0.7" stroke-miterlimit="10"/>
<path d="M256.992 123.107C256.992 123.107 274.387 131.395 276.229 132.417C278.071 133.439 280.322 136.202 280.322 136.202" stroke="#00D1FF" stroke-width="0.7" stroke-miterlimit="10"/>
<path d="M282.473 135.999C282.473 135.999 279.71 135.386 279.71 138.862" stroke="#00D1FF" stroke-width="0.7" stroke-miterlimit="10"/>
<path d="M236.222 108.064L246.351 110.519L247.581 109.496" stroke="#00D1FF" stroke-width="0.7" stroke-miterlimit="10"/>
<path d="M231.825 106.324L216.271 101.618" stroke="#00D1FF" stroke-width="0.7" stroke-miterlimit="10"/>
<path d="M54.8618 146.911L112.522 168.671" stroke="#00D1FF" stroke-width="0.7" stroke-miterlimit="10"/>
<path d="M87.999 162.225L117.043 173.188" stroke="#00D1FF" stroke-width="0.7" stroke-miterlimit="10"/>
<path d="M67.7539 154.587L82.7733 160.255" stroke="#00D1FF" stroke-width="0.7" stroke-miterlimit="10"/>
<path d="M117.103 170.412L122.094 172.295" stroke="#00D1FF" stroke-width="0.7" stroke-miterlimit="10"/>
<path d="M122.324 172.714L125.414 173.883" stroke="#00D1FF" stroke-width="0.7" stroke-miterlimit="10"/>
<path d="M156.774 138.554L158.616 141.777L154.315 145.921L149.868 145" stroke="#00D1FF" stroke-width="0.7" stroke-miterlimit="10"/>
<path d="M149.251 146.073L151.092 149.296L146.797 153.44L142.344 152.519" stroke="#00D1FF" stroke-width="0.7" stroke-miterlimit="10"/>
<path d="M136.036 115.224L144.494 107.705C144.494 107.705 142.804 103.713 140.35 105.863L131.648 113.585C131.224 113.958 131.28 114.635 131.759 114.934C132.122 115.16 132.574 115.422 133.066 115.657C134.047 116.131 135.221 115.947 136.041 115.224H136.036Z" stroke="#00D1FF" stroke-width="0.7" stroke-miterlimit="10"/>
<path d="M120.091 101.72L136.358 109.087" stroke="#00D1FF" stroke-width="0.7" stroke-miterlimit="10"/>
<path d="M140.198 111.849L173.81 125.05" stroke="#00D1FF" stroke-width="0.7" stroke-miterlimit="10"/>
<path d="M137.588 114.612L171.2 127.812" stroke="#00D1FF" stroke-width="0.7" stroke-miterlimit="10"/>
<path d="M144.494 108.626L213.251 136.56" stroke="#00D1FF" stroke-width="0.7" stroke-miterlimit="10"/>
<path d="M119.271 51.9927C121.316 54.037 122.343 62.2235 119.069 68.1585" stroke="#00D1FF" stroke-width="0.7" stroke-miterlimit="10"/>
<path d="M111.255 50.8647C111.932 53.1991 112.13 56.5787 111.426 59.8985" stroke="#00D1FF" stroke-width="0.7" stroke-miterlimit="10"/>
<path d="M99.7723 123.558C94.9424 127.987 90.1354 135.649 87.9622 145.631C85.5895 156.534 87.1193 165.106 88.333 167.677" stroke="#00D1FF" stroke-width="0.7" stroke-miterlimit="10"/>
<path d="M39.2617 148.684L44.681 153.698L52.048 154.416L102.802 173.036" stroke="#00D1FF" stroke-width="0.7" stroke-miterlimit="10"/>
<path d="M224.218 233.772C223.638 234.191 223.058 234.343 222.584 234.14C221.502 233.68 221.377 231.552 222.298 229.393C223.219 227.234 224.845 225.857 225.927 226.317C226.447 226.538 226.746 227.146 226.815 227.956" stroke="#00D1FF" stroke-width="0.7" stroke-miterlimit="10"/>
<path d="M210.571 229.264C209.489 228.804 209.365 226.676 210.286 224.517C211.206 222.358 212.832 220.981 213.914 221.441" stroke="#00D1FF" stroke-width="0.7" stroke-miterlimit="10"/>
<path d="M227.629 231.728C228.342 230.061 228.242 228.42 227.407 228.063C226.573 227.707 225.318 228.769 224.606 230.437C223.894 232.104 223.993 233.745 224.828 234.101C225.663 234.458 226.917 233.395 227.629 231.728Z" stroke="#00D1FF" stroke-width="0.7" stroke-miterlimit="10"/>
<path d="M204.176 216.505C204.642 215.413 204.578 214.338 204.032 214.105C203.486 213.872 202.665 214.568 202.198 215.66C201.732 216.752 201.796 217.827 202.342 218.06C202.889 218.293 203.709 217.597 204.176 216.505Z" stroke="#00D1FF" stroke-width="0.7" stroke-miterlimit="10"/>
<path d="M194.723 215.051C194.17 214.816 194.106 213.725 194.575 212.62C195.045 211.515 195.883 210.806 196.436 211.045" stroke="#00D1FF" stroke-width="0.7" stroke-miterlimit="10"/>
<path d="M196.251 210.99C195.786 210.792 195.731 209.876 196.127 208.941C196.523 208.006 197.227 207.417 197.692 207.615" stroke="#00D1FF" stroke-width="0.7" stroke-miterlimit="10"/>
<path d="M206.138 213.01C206.549 212.047 206.492 211.1 206.011 210.894C205.529 210.688 204.805 211.302 204.394 212.265C203.983 213.228 204.039 214.176 204.521 214.381C205.002 214.587 205.726 213.973 206.138 213.01Z" stroke="#00D1FF" stroke-width="0.7" stroke-miterlimit="10"/>
<path d="M162.357 207.793C163.069 206.126 162.97 204.485 162.135 204.129C161.3 203.772 160.046 204.835 159.334 206.502C158.621 208.169 158.721 209.81 159.556 210.167C160.39 210.523 161.645 209.461 162.357 207.793Z" stroke="#00D1FF" stroke-width="0.7" stroke-miterlimit="10"/>
<path d="M158.745 209.074C157.52 211.188 154.334 212.818 154.408 209.061C154.444 207.306 156.286 202.071 158.92 203.056" stroke="#00D1FF" stroke-width="0.7" stroke-miterlimit="10"/>
<path d="M120.321 197.149C118.986 196.578 119.087 193.341 120.552 189.915C122.016 186.49 124.281 184.178 125.621 184.749" stroke="#00D1FF" stroke-width="0.7" stroke-miterlimit="10"/>
<path d="M119.723 195.713L115.791 195.372C114.363 194.764 114.474 191.306 116.035 187.65C117.596 183.995 120.018 181.527 121.445 182.134" stroke="#00D1FF" stroke-width="0.7" stroke-miterlimit="10"/>
<path d="M114.667 192.374C114.667 192.374 111.274 192.503 109.948 191.937C108.622 191.37 108.723 188.161 110.173 184.768C111.223 182.313 112.687 180.435 113.921 179.795L118.18 180.569" stroke="#00D1FF" stroke-width="0.7" stroke-miterlimit="10"/>
<path d="M179.777 215.194C179.059 214.885 178.976 213.472 179.589 212.035C180.201 210.599 181.283 209.682 182.001 209.991" stroke="#00D1FF" stroke-width="0.7" stroke-miterlimit="10"/>
<path d="M131.111 189.593C131.312 188.271 129.992 186.973 128.161 186.694C126.331 186.415 124.684 187.261 124.483 188.584C124.282 189.906 125.602 191.204 127.432 191.483C129.262 191.761 130.909 190.915 131.111 189.593Z" stroke="#00D1FF" stroke-width="0.7" stroke-miterlimit="10"/>
<path d="M170.053 207.992L175.555 210.331C175.918 210.483 176.337 210.391 176.6 210.096L177.866 208.683C178.285 208.213 178.119 207.472 177.539 207.223L172.29 204.986C171.968 204.847 171.59 204.907 171.328 205.138L169.809 206.454C169.293 206.901 169.426 207.73 170.053 207.997V207.992Z" stroke="#00D1FF" stroke-width="0.7" stroke-miterlimit="10"/>
<path d="M112.521 181.526L114.667 182.295" stroke="#00D1FF" stroke-width="0.7" stroke-miterlimit="10"/>
<path d="M110.933 184.238L113.083 185.007" stroke="#00D1FF" stroke-width="0.7" stroke-miterlimit="10"/>
<path d="M109.81 187.208L111.955 187.972" stroke="#00D1FF" stroke-width="0.7" stroke-miterlimit="10"/>
<path d="M109.4 189.51L111.55 190.275" stroke="#00D1FF" stroke-width="0.7" stroke-miterlimit="10"/>
<path d="M336.053 125.156L309.237 114.534" stroke="#00D1FF" stroke-width="0.7" stroke-miterlimit="10"/>
<path d="M338.033 120.653L311.217 110.026" stroke="#00D1FF" stroke-width="0.7" stroke-miterlimit="10"/>
<path d="M349.756 124.281L339.014 120.026" stroke="#00D1FF" stroke-width="0.7" stroke-miterlimit="10"/>
<path d="M346.44 130.948L336.449 126.988" stroke="#00D1FF" stroke-width="0.7" stroke-miterlimit="10"/>
<path d="M346.403 128.273L336.007 124.152" stroke="#00D1FF" stroke-width="0.7" stroke-miterlimit="10"/>
<path d="M348.42 130.957C347.909 131.325 347.403 131.459 346.984 131.279C346.035 130.874 345.925 129.009 346.735 127.112C347.546 125.215 348.973 124.004 349.921 124.41C350.377 124.603 350.64 125.137 350.7 125.851" stroke="#00D1FF" stroke-width="0.7" stroke-miterlimit="10"/>
<path d="M336.435 126.998C335.487 126.592 335.376 124.728 336.187 122.831C336.997 120.934 338.424 119.723 339.373 120.128" stroke="#00D1FF" stroke-width="0.7" stroke-miterlimit="10"/>
<path d="M351.406 129.162C352.031 127.698 351.945 126.258 351.213 125.945C350.481 125.632 349.381 126.566 348.755 128.03C348.13 129.493 348.216 130.934 348.948 131.246C349.68 131.559 350.781 130.626 351.406 129.162Z" stroke="#00D1FF" stroke-width="0.7" stroke-miterlimit="10"/>
<path d="M311.075 109.635C311.204 108.999 311.259 108.345 311.199 107.701" stroke="#00D1FF" stroke-width="0.7" stroke-miterlimit="10"/>
<path d="M307.557 106.697C305.872 108.354 304.348 111.6 305.089 114.004C305.83 116.407 308.068 115.123 309.164 113.751" stroke="#00D1FF" stroke-width="0.7" stroke-miterlimit="10"/>
<path d="M309.389 114.639C308.759 114.368 308.685 113.129 309.224 111.867C309.762 110.606 310.711 109.8 311.342 110.072" stroke="#00D1FF" stroke-width="0.7" stroke-miterlimit="10"/>
<path d="M440.143 227.059V231.254L456.286 212.298V210.456L454.799 209.844C452.65 208.769 443.822 204.291 431.966 198.268C398.608 181.321 341.279 152.147 341.279 152.147L340.427 150.098L331.209 145.318L327.798 144.978L278.121 118.517" stroke="#00D1FF" stroke-width="0.7" stroke-miterlimit="10"/>
<path d="M440.143 227.059V231.254L456.286 212.298V210.456L454.799 209.844C452.65 208.769 443.822 204.291 431.966 198.268" stroke="#00D1FF" stroke-width="2.5" stroke-miterlimit="10"/>
<path d="M439.632 231.18L436.948 230.333" stroke="#00D1FF" stroke-width="0.7" stroke-miterlimit="10"/>
<path d="M437.482 230.54V234.325L421.896 252.258L421.408 252.189L203.738 217.519" stroke="#00D1FF" stroke-width="2.5" stroke-miterlimit="10"/>
</svg>
