<svg width="537" height="141" viewBox="0 0 537 141" fill="none" xmlns="http://www.w3.org/2000/svg">
<path d="M1.35474 136.1L5.60984 140L516.932 99.222L513.74 95.2686M488.209 59.171L535.37 32.5587L535.725 28.3036" stroke="#FF2055" stroke-width="0.709184"/>
<path d="M516.931 94.9668L1 136.099C103.004 91.5391 318.005 4.19133 318.005 4.19133C318.005 4.19133 363.275 8.68282 383.605 10.9286L464.452 1L509.13 4.19133L535.37 28.3036L485.727 56.3163L516.931 94.9668Z" stroke="#FF2055" stroke-width="0.709184"/>
<path d="M446.368 11.6373L487.146 9.50977L489.982 29.0123L440.694 47.8057L442.467 66.5991C361.147 70.736 194.253 79.3644 194.253 79.3644C194.253 79.3644 322.97 16.247 324.388 15.8924C325.523 15.6087 356.301 20.7385 371.549 23.3388L446.368 11.6373Z" stroke="#FF2055" stroke-width="2.83673"/>
<path d="M1.70898 136.1C2.84368 135.533 130.78 97.5678 194.607 78.6562" stroke="#FF2055" stroke-width="0.709184"/>
<path d="M195.317 80.4287L2.41895 136.1" stroke="#FF2055" stroke-width="0.709184"/>
<path d="M524.023 18.375L503.456 24.9562M488.563 29.7219L496.01 27.3391" stroke="#FF2055" stroke-width="0.709184"/>
<path d="M498.847 6.67383L527.569 32.559" stroke="#FF2055" stroke-width="0.709184"/>
<path d="M519.413 36.8139L505.429 24.2109" stroke="#FF2055" stroke-width="0.709184"/>
<path d="M517.995 38.2315L491.4 14.2637" stroke="#FF2055" stroke-width="0.709184"/>
<path d="M425.447 14.8294L425.092 25.8217L420.128 22.6304L423.319 13.7656L425.447 14.8294Z" stroke="#FF2055" stroke-width="0.709184"/>
</svg>
