<svg width="1280" height="160" viewBox="0 0 1280 160" fill="none" xmlns="http://www.w3.org/2000/svg">
<path d="M1.5 160V138H540L564.171 158H1086L1110.64 138H1278.5V160" stroke="#F5F8FA" stroke-width="3"/>
<rect width="6" height="6" rx="1" transform="matrix(-1 0 0 1 572 131)" fill="#FF2055"/>
<rect width="6" height="6" rx="1" transform="matrix(-1 0 0 1 580 131)" fill="#FF2055"/>
<rect width="6" height="6" rx="1" transform="matrix(-1 0 0 1 596 131)" fill="#FF2055"/>
<rect width="6" height="6" rx="1" transform="matrix(-1 0 0 1 612 131)" fill="#FF2055"/>
<rect width="6" height="6" rx="1" transform="matrix(-1 0 0 1 628 131)" fill="#FF2055"/>
<rect width="6" height="6" rx="1" transform="matrix(-1 0 0 1 636 131)" fill="#FF2055"/>
<rect width="6" height="6" rx="1" transform="matrix(-1 0 0 1 644 131)" fill="#FF2055"/>
<rect width="6" height="6" rx="1" transform="matrix(-1 0 0 1 652 131)" fill="#FF2055"/>
<rect width="6" height="6" rx="1" transform="matrix(-1 0 0 1 668 131)" fill="#FF2055"/>
<rect width="6" height="6" rx="1" transform="matrix(-1 0 0 1 684 131)" fill="#FF2055"/>
<rect width="6" height="6" rx="1" transform="matrix(-1 0 0 1 692 131)" fill="#FF2055"/>
<rect width="6" height="6" rx="1" transform="matrix(-1 0 0 1 708 131)" fill="#FF2055"/>
<rect width="6" height="6" rx="1" transform="matrix(-1 0 0 1 724 131)" fill="#FF2055"/>
<rect width="6" height="6" rx="1" transform="matrix(-1 0 0 1 580 139)" fill="#FF2055"/>
<rect width="6" height="6" rx="1" transform="matrix(-1 0 0 1 596 139)" fill="#FF2055"/>
<rect width="6" height="6" rx="1" transform="matrix(-1 0 0 1 604 139)" fill="#FF2055"/>
<rect width="6" height="6" rx="1" transform="matrix(-1 0 0 1 620 139)" fill="#FF2055"/>
<rect width="6" height="6" rx="1" transform="matrix(-1 0 0 1 636 139)" fill="#FF2055"/>
<rect width="6" height="6" rx="1" transform="matrix(-1 0 0 1 668 139)" fill="#FF2055"/>
<rect width="6" height="6" rx="1" transform="matrix(-1 0 0 1 692 139)" fill="#FF2055"/>
<rect width="6" height="6" rx="1" transform="matrix(-1 0 0 1 700 139)" fill="#FF2055"/>
<rect width="6" height="6" rx="1" transform="matrix(-1 0 0 1 724 139)" fill="#FF2055"/>
<line x1="540" y1="138" x2="750" y2="4" stroke="#F5F8FA" stroke-width="2"/>
<circle cx="750" cy="4" r="4" fill="#F5F8FA"/>
</svg>
